<svg id="Capa_1" enable-background="new 0 0 510.025 510.025" height="512" viewBox="0 0 510.025 510.025" width="512" xmlns="http://www.w3.org/2000/svg"><g><path d="m15.025 51.017h480v312h-480z" fill="#ecf9fd"/><path d="m255.025 51.017h240v312h-240z" fill="#d9f3fc"/><path d="m433.065 324.038v38.98h-177.04v-38.98c0-22.06 17.94-40 40-40h97.04c22.06 0 40 17.939 40 40z" fill="#00aa95"/><path d="m397.983 242.777-65.702-39.27-39.285 23.921-14.736-2.806c-1.019 5.35-1.017 10.049-1.015 15.023 0 55.396 51.165 88.685 94.67 68.421 23.903-11.127 40.02-36.537 41.061-64.736z" fill="#ffc896"/><path d="m.025 36.017c0 .786-.006 282.649.01 283.55.29 16.61 4.7 36.26 13.13 58.45h496.86v-342zm480 312h-450v-282h450z" fill="#5c7099"/><path d="m510.025 36.017v342h-255v-30h225v-281.999h-225v-30.001z" fill="#404a80"/><circle cx="255.025" cy="51.017" fill="#f66" r="47"/><path d="m302.025 51.017c0 25.92-21.08 47-47 47v-94c25.92 0 47 21.081 47 47z" fill="#e62e6b"/><path d="m206.025 420.027v85.98h-186.96v-85.98c0-13.752 6.077-21.263 11.34-28.96 96.756-1.536 60.027-.955 161.2-2.55 6.058 6.945 14.42 15.355 14.42 31.51z" fill="#00dd80"/><path d="m206.025 420.027v85.98h-95v-116.22l80.58-1.27c6.058 6.945 14.42 15.355 14.42 31.51z" fill="#00aa95"/><path d="m222.025 317.868c0 19.857-6.155 41.681-13.17 60.15-14.381 38.351-47.72 65.551-86.05 72.12-37.69 6.54-90.32-21.29-109.64-72.12-8.43-22.19-12.84-41.84-13.13-58.45-1.709-97.313 59.1-154.997 110.43-122.41 53.72-33.951 111.56 27.469 111.56 120.71z" fill="#fed843"/><path d="m222.025 317.868c0 17.03-4.52 37.51-13.44 60.86-17.249 45.201-60.929 72.36-97.47 72.36-.14 0-.09 12.087-.09-254.27 53.059-32.649 111 27.045 111 121.05z" fill="#fabe2c"/><ellipse cx="344.545" cy="227.682" fill="#ffc896" rx="78.482" ry="86.355"/><path d="m414.245 188.038c-35.311 35.921-96.108 47.971-148.13 36.88 1.32-46.34 36-83.59 78.43-83.59 30.29 0 56.63 18.98 69.7 46.71z" fill="#fabe2c"/></g></svg>