<svg id="Layer_1" enable-background="new 0 0 512 512" height="512" viewBox="0 0 512 512" width="512" xmlns="http://www.w3.org/2000/svg"><g><g><circle cx="256" cy="256" fill="#97d729" r="256"/></g><g><path d="m33.733 403.442h442.832v46.452h-442.832z" fill="#a56941"/></g><g><path d="m33.733 403.442h138.882v46.452h-138.882z" fill="#965028"/></g><g><g><path d="m467.545 185.164v-153.318h-116.31v153.317c0 28.241 20.132 51.771 46.825 57.043v129.584l-38.515 9.876c-4.891 1.254-8.311 5.662-8.311 10.711 0 6.107 4.949 11.058 11.057 11.058h94.196c6.106 0 11.057-4.951 11.057-11.058v-.056c0-5.023-3.386-9.415-8.243-10.693l-38.583-10.152v-129.269c26.695-5.272 46.827-28.803 46.827-57.043z" fill="#fff"/></g><g><path d="m373.893 392.377c0-5.049 3.421-9.457 8.312-10.711l38.515-9.876v-.315-129.268c-26.693-5.271-46.826-28.803-46.826-57.043v-153.318h-22.657v153.317c0 28.241 20.132 51.771 46.825 57.043v129.584l-38.515 9.876c-4.891 1.254-8.311 5.662-8.311 10.711 0 6.107 4.949 11.058 11.057 11.058h22.658c-6.108-.001-11.058-4.951-11.058-11.058z" fill="#d2f0ff"/></g><g><path d="m362.094 101.677v79.668c0 22.967 16.373 42.104 38.082 46.392h18.427c21.709-4.288 38.082-23.425 38.082-46.392v-79.668z" fill="#fd4755"/></g><g><path d="m362.094 101.675v79.669c0 18.676 10.827 34.817 26.545 42.504-9.169-10.277-14.746-23.827-14.746-38.685v-83.488z" fill="#aa321e"/></g></g><g><g><path d="m184.314 211.969h7.678v49.729h-7.678z" fill="#fffad7"/></g><g><g><path d="m317.814 290.623c0-6.664 5.401-12.065 12.065-12.065v-34.556h-230.91v159.391h230.911v-100.704c-6.663 0-12.066-5.402-12.066-12.066z" fill="#fac855"/></g><g><path d="m151.33 326.935c-12.328 0-21.456-10.076-21.99-21.99-.532-11.876 10.487-21.99 21.99-21.99 1.068 0 2.109.08 3.125.227v-39.18h-96.884v159.391h96.884v-76.705c-1.032.161-2.076.247-3.125.247z" fill="#ffa50a"/></g><g><path d="m57.571 244.002h17.076v159.391h-17.076z" fill="#fa870a"/></g><g><g><circle cx="250.691" cy="282.508" fill="#ffa50a" r="11.941"/></g><g><circle cx="238.749" cy="295.658" fill="#ffa50a" r="17.101"/></g><g><circle cx="176.187" cy="381.873" fill="#ffa50a" r="11.965"/></g><g><circle cx="288.843" cy="359.637" fill="#ffa50a" r="12.501"/></g><g><circle cx="230.199" cy="355.686" fill="#ffa50a" r="8.55"/></g><g><circle cx="184.323" cy="278.557" fill="#ffa50a" r="7.99"/></g></g></g><g><g><ellipse cx="192.294" cy="203.206" fill="#3d772a" rx="31.539" ry="44.932" transform="matrix(-.235 -.972 .972 -.235 39.968 437.869)"/></g><g><path d="m211.703 227.891c-24.12 5.835-46.993-3.16-51.088-20.09-2.898-11.982 4.392-24.723 17.447-33.218-20.261 7.369-33.116 23.881-29.421 39.155 4.096 16.93 26.969 25.925 51.088 20.09 7.05-1.705 13.418-4.495 18.81-8.003-2.197.801-4.477 1.496-6.836 2.066z" fill="#336b21"/></g><g><circle cx="216.862" cy="197.236" fill="#fd4755" r="14.728"/></g></g><g><path d="m188.153 191.664c-2.12 0-3.839-1.719-3.839-3.839v-45.387c0-2.12 1.719-3.839 3.839-3.839s3.839 1.719 3.839 3.839v45.387c0 2.12-1.719 3.839-3.839 3.839z" fill="#fffad7"/></g><g><g><g><ellipse cx="185.733" cy="127.772" fill="#3d772a" rx="44.955" ry="31.556" transform="matrix(-.984 -.181 .181 -.984 345.285 287.037)"/></g></g><g><path d="m191.095 155.204c-24.406-4.487-41.639-22.012-38.489-39.144 1.536-8.355 7.644-15.066 16.321-19.236-14.414 2.851-25.351 11.288-27.483 22.889-3.15 17.133 14.082 34.657 38.489 39.145 12.504 2.299 24.457.722 33.573-3.659-6.872 1.358-14.531 1.454-22.411.005z" fill="#336b21"/></g><g><g><g><path d="m211.226 126.558h6.398v15.88h-6.398z" fill="#254c17"/></g><g><path d="m206.485 131.299h15.88v6.398h-15.88z" fill="#254c17"/></g></g><g><path d="m188.153 112.921c-2.12 0-3.839-1.719-3.839-3.839v-53.578c0-2.12 1.719-3.839 3.839-3.839s3.839 1.719 3.839 3.839v53.578c0 2.12-1.719 3.839-3.839 3.839z" fill="#fffad7"/></g></g></g></g></g></svg>