<svg id="Capa_1" enable-background="new 0 0 512 512" height="512" viewBox="0 0 512 512" width="512" xmlns="http://www.w3.org/2000/svg"><g><path d="m415.241 7.5h-148.923c-2.238 0-4.052 1.814-4.052 4.052v103.362c0 2.238 1.814 4.052 4.052 4.052h148.923c2.238 0 4.052-1.814 4.052-4.052v-103.362c0-2.238-1.814-4.052-4.052-4.052z" fill="#e27d47"/><path d="m421.002 241.353h-160.445c-2.662 0-4.819-2.158-4.819-4.819v-77.397c0-2.662 2.158-4.819 4.819-4.819h160.445c2.662 0 4.819 2.158 4.819 4.819v77.397c.001 2.661-2.157 4.819-4.819 4.819z" fill="#d0e2e7"/><path d="m415.241 7.5h-35.948v52.383c0 21.584-17.498 39.082-39.082 39.082h-77.944v15.948c0 2.238 1.814 4.052 4.052 4.052h148.923c2.238 0 4.052-1.814 4.052-4.052v-103.361c-.001-2.238-1.815-4.052-4.053-4.052z" fill="#dd6938"/><path d="m385.821 154.318v32.005c0 19.347-15.684 35.031-35.031 35.031h-95.052v15.181c0 2.662 2.158 4.819 4.819 4.819h160.445c2.662 0 4.819-2.158 4.819-4.819v-77.397c0-2.662-2.158-4.819-4.819-4.819h-35.181z" fill="#b4d0d5"/><path d="m425.822 231.329h20.415c2.662 0 4.819-2.158 4.819-4.819v-57.35c0-2.662-2.158-4.819-4.819-4.819h-20.415z" fill="#d0e2e7"/><path d="m214.232 333.882-35.365-35.365c-2.138-2.138-5.604-2.138-7.741 0l-19.93 19.93c18.528 9.439 33.667 24.578 43.106 43.106l19.93-19.93c2.138-2.137 2.138-5.603 0-7.741z" fill="#86a0af"/><path d="m81.715 475.025c1.484-1.922 3.346-3.569 5.517-4.823l117.66-67.931c-2.033-52.528-45.258-94.488-98.283-94.488-54.322 0-98.358 44.037-98.358 98.358 0 48.404 34.965 88.642 81.016 96.834-10.383-4.506-15.176-18.075-7.552-27.95z" fill="#86a0af"/><path d="m81.715 475.025c1.484-1.922 3.346-3.569 5.517-4.823l117.66-67.931c-1.732-44.752-33.363-81.833-75.481-91.831 5.4 4.484 10.312 9.536 14.645 15.062 19.624 25.028 12.307 61.693-15.237 77.595l-81.588 47.104c-2.171 1.253-4.033 2.901-5.517 4.823-3.464 4.486-4.364 9.735-3.343 14.55.483 2.274-.217 4.371-1.57 5.859 13.955 14.058 32.128 23.924 52.463 27.541-10.38-4.505-15.173-18.074-7.549-27.949z" fill="#738b95"/><path d="m413.15 413.632c-8.057-20.134-11.805-41.733-11.805-63.419v-108.86h-121.13v72.912c0 27.548-14.697 53.003-38.554 66.777l-154.429 89.16c-2.171 1.253-4.033 2.901-5.517 4.823-9.27 12.007-.182 29.475 14.987 29.475h274.188c27.676 0 50.112-22.436 50.112-50.112 0-14.098-2.714-27.916-7.852-40.756z" fill="#dfaca0"/><path d="m413.15 413.632c-8.057-20.134-11.805-41.733-11.805-63.419v-108.86h-40v88.86c0 21.686 3.748 43.286 11.805 63.42 5.138 12.84 7.852 26.657 7.852 40.755 0 27.676-22.436 50.112-50.112 50.112h-252.863c-.762 10.045 7.223 20 18.674 20h274.189c27.676 0 50.112-22.436 50.112-50.112 0-14.098-2.714-27.916-7.852-40.756z" fill="#d59b8b"/><path d="m280.215 118.966h121.129v35.352h-121.129z" fill="#dfaca0"/><path d="m361.345 118.966h40v35.352h-40z" fill="#d59b8b"/><path d="m213.669 317.935c8.656-8.656 20.165-13.423 32.406-13.423h34.14v-25h-34.14c-18.918 0-36.705 7.367-50.083 20.745l-7.692 7.692 17.678 17.678z" fill="#617881"/><path d="m455.182 185.335h-4.126v25h4.126c12.996 0 23.568 10.572 23.568 23.567v22.042c0 12.995-10.572 23.567-23.568 23.567h-53.838v25h53.838c26.78 0 48.568-21.787 48.568-48.567v-22.042c0-26.779-21.788-48.567-48.568-48.567z" fill="#617881"/><path d="m357.074 361.271c-2.929 2.929-2.929 7.677 0 10.606 6.874 6.874 6.874 18.058 0 24.932-6.874 6.873-18.058 6.873-24.932 0-2.929-2.93-7.678-2.929-10.606 0-2.929 2.929-2.929 7.678 0 10.606 12.721 12.721 33.422 12.723 46.145 0 12.722-12.722 12.722-33.423 0-46.145-2.929-2.929-7.678-2.929-10.607.001z"/><path d="m511.25 255.944v-22.042c0-29.783-23.343-54.217-52.694-55.967v-8.776c0-6.792-5.526-12.319-12.319-12.319h-13.131c-1.079-5.699-6.095-10.023-12.104-10.023h-12.158v-20.353h6.396c6.37 0 11.552-5.182 11.552-11.551v-103.361c0-6.37-5.182-11.552-11.552-11.552h-148.922c-6.37 0-11.552 5.182-11.552 11.552v59.377c0 4.142 3.358 7.5 7.5 7.5s7.5-3.358 7.5-7.5v-55.929h142.026v96.465h-142.025v-5.536c0-4.142-3.358-7.5-7.5-7.5s-7.5 3.358-7.5 7.5v8.985c0 6.37 5.182 11.551 11.552 11.551h6.397v20.353h-12.158c-6.792 0-12.319 5.526-12.319 12.319v77.397c0 6.793 5.526 12.319 12.319 12.319h12.158v23.159h-26.64c-20.922 0-40.592 8.147-55.387 22.942l-2.389 2.389-4.128-4.128c-5.059-5.059-13.289-5.059-18.348 0l-16.171 16.171c-15.888-7.074-32.772-9.859-49.131-8.93-4.135.235-7.297 3.778-7.062 7.913.234 4.135 3.774 7.306 7.913 7.062 49.039-2.782 91.468 33.405 95.745 82.669l-113.637 65.607c-9.004 5.199-14.326 15.289-12.702 25.989-32.815-14.01-55.03-46.489-55.03-83.555 0-35.737 21.073-68.291 53.686-82.933 3.779-1.696 5.467-6.135 3.771-9.914s-6.135-5.466-9.914-3.77c-37.993 17.059-62.542 54.983-62.542 96.618 0 51.13 36.291 94.77 86.41 104.074 2.981 1.162 6.204 1.784 9.542 1.784h274.188c31.768 0 57.612-25.845 57.612-57.612 0-14.983-2.823-29.633-8.389-43.542-7.477-18.684-11.268-39.083-11.268-60.633v-38.201h46.337c30.916 0 56.068-25.152 56.068-56.068zm-102.405-7.091h12.158c6.008 0 11.025-4.324 12.103-10.023h13.131c6.792 0 12.319-5.526 12.319-12.319v-8.318c7.246 1.554 12.694 8.008 12.694 15.711v22.042c0 8.859-7.208 16.067-16.068 16.067h-46.337zm34.711-25.023h-10.234v-51.988h10.234zm-155.841-97.365h106.129v20.353h-106.129zm-86.42 179.095c11.961-11.961 27.865-18.548 44.78-18.548h26.64v10h-26.64c-14.244 0-27.636 5.547-37.709 15.62l-2.389 2.389-7.071-7.071zm-37.85 11.246 11.552-11.552 32.5 32.5-11.549 11.549c-8.578-13.442-19.918-24.465-32.503-32.497zm39.922 46.289 16.169-16.169c5.059-5.059 5.059-13.289 0-18.348l-2.952-2.952 2.389-2.389c7.24-7.239 16.865-11.226 27.103-11.226h26.64v2.253c0 24.789-13.336 47.888-34.804 60.282l-26.674 15.4c-1.428-9.32-4.081-18.337-7.871-26.851zm210.135 91.293c0 23.497-19.116 42.612-42.612 42.612h-247.558c-2.725 0-3.949-2.062-4.259-2.693-.447-.91-.991-2.705.395-4.5.39-.505.868-.923 1.421-1.242l53.296-30.77c3.587-2.071 4.816-6.658 2.745-10.245-2.071-3.588-6.659-4.817-10.245-2.745l-53.296 30.77c-7.393 4.268-11.366 12.843-9.217 21.426h-7.47c-4.42 0-8.154-2.428-10.075-6.337-2.61-5.312-.565-11.125 4.354-13.966 26.455-15.274 121.254-70.006 154.43-89.16 26.094-15.065 42.304-43.142 42.304-73.272v-65.412h58.629c4.142 0 7.5-3.358 7.5-7.5s-3.358-7.5-7.5-7.5h-83.106v-72.035h155.083v72.035h-36.977c-4.142 0-7.5 3.358-7.5 7.5s3.358 7.5 7.5 7.5h12.5v101.36c0 23.467 4.152 45.742 12.342 66.206 4.855 12.128 7.316 24.902 7.316 37.968zm41.68-157.376h-46.337v-10h46.337c17.131 0 31.068-13.937 31.068-31.067v-22.042c0-15.991-12.144-29.198-27.694-30.885v-10.045c21.073 1.721 37.694 19.421 37.694 40.929v22.042c0 22.645-18.423 41.068-41.068 41.068z"/></g></svg>