<svg id="Capa_1" enable-background="new 0 0 511.988 511.988" height="512" viewBox="0 0 511.988 511.988" width="512" xmlns="http://www.w3.org/2000/svg"><g><g><path d="m511.988 255.994c0 87.818-44.229 165.316-111.617 211.415l-39.349-16.94c-67.218-28.949-143.367-29.069-210.675-.34l-39.409 16.82c-67.009-46.169-110.938-123.427-110.938-210.955 0-46.219 12.25-89.568 33.679-126.997 44.119-77.068 127.157-128.997 222.315-128.997s178.196 51.929 222.315 128.997c21.43 37.429 33.679 80.778 33.679 126.997z" fill="#fdd400"/><g><path d="m511.988 255.994c0 87.818-44.229 165.316-111.617 211.415l-39.349-16.94c-67.218-28.949-143.367-29.069-210.675-.34l-39.409 16.82c-67.009-46.169-110.938-123.427-110.938-210.955 0-46.219 12.25-89.568 33.679-126.997 19.229 33.589 45.859 62.408 77.668 84.218 10.21 7.02 20.96 13.3 32.159 18.79 5.25 2.57 10.59 4.97 16.03 7.19 29.029 11.82 60.719 18.46 93.918 18.77.52.01 1.05.02 1.57.02.32.01.65.01.97.01s.65 0 .97-.01c.52 0 1.05-.01 1.57-.02 33.209-.31 64.889-6.95 93.928-18.77 5.43-2.21 10.77-4.61 16.01-7.18 11.26-5.51 22.06-11.83 32.309-18.88 31.739-21.8 58.319-50.589 77.528-84.138 21.43 37.429 33.679 80.778 33.679 126.997z" fill="#faba10"/></g></g><g><path d="m283.834 465.729c-31.489-9.72-66.978-2.83-92.818 20.699l-14.32 13.04c-23.609-7.69-45.719-18.72-65.758-32.519l.41-253.734.12-75.838c.02-10.65 8.66-19.26 19.3-19.24l125.227.2 33.549 76.108c38.649 87.639 35.799 186.976-5.71 271.284z" fill="#e73a4a"/><path d="m400.901 137.837-.12 75.298-.41 254.274c-20.079 13.74-42.219 24.699-65.859 32.309l-14.27-13.08c-18.27-16.74-41.419-25.139-64.579-25.179l.33-203.465.22-139.657 125.447.2c10.641.02 19.261 8.65 19.241 19.3z" fill="#de1364"/><g><path d="m267.724 290.823-11.72-41.449-17.69-.03-.04 23.129c0 4.99-2.47 9.58-6.52 12.37-.56.39-1.15.74-1.77 1.06-.97.49-1.92 1.03-2.88 1.58-4.77 2.82-10.31 4.12-15.85 4.11-4.72-.01-9.31-1.04-13.5-2.98-4.19-1.92-7.94-4.77-11.03-8.35l-23.839-27.93c-1.63-1.88-.85-4.82 1.51-5.65l38.359-13.55 53.179-18.79.13.05.13-.05c8.12-6.92 9.79-18.829 3.87-27.709l-3.82-5.73c-.05-.01-.08-.01-.13-.02-.05.01-.08.01-.13.02-2.62-.38-5.37-.17-8.03.78l-33.819 11.93-67.368 24.129c-21.14 7.57-28.179 33.939-13.65 51.059l29.579 34.819c23.38 27.379 36.179 62.189 36.129 98.158l-.07 41.309 56.939.09 13.29-51.959c8.441-32.987 8.011-67.626-1.259-100.396z" fill="#f7bda3"/><path d="m378.832 269.204-29.699 34.719c-23.46 27.299-36.379 62.069-36.429 98.038l-.07 41.309-56.939-.09.24-151.847.07-41.959 17.69.03-.04 23.13c0 4.95 2.41 9.51 6.39 12.32.03.03.06.05.09.07.56.39 1.15.74 1.77 1.06.97.49 1.92 1.03 2.88 1.6 4.76 2.82 10.29 4.14 15.83 4.15 4.72.01 9.31-1 13.52-2.94 4.19-1.9 7.96-4.73 11.05-8.31l23.94-27.849c1.63-1.88.85-4.82-1.51-5.65l-38.299-13.67-53.119-18.97-.13.05.05-33.509c.05.01.08.01.13.02 2.62-.38 5.37-.15 8.03.8l33.779 12.05 67.289 24.349c21.116 7.63 28.076 34.019 13.487 51.099z" fill="#f4a57b"/><path d="m255.934 291.333h-.13c-8.67-.21-16.84-2.55-24.049-6.49 4.05-2.79 6.52-7.38 6.52-12.37l.04-23.129 17.69.03 2.13 5.01c5.089 11.98 4.279 25.65-2.201 36.949z" fill="#f4a57b"/><path d="m280.044 284.853c-7.1 3.76-15.67 6.27-24.109 6.48l.07-41.959 17.69.03-.04 23.13c-.001 4.95 2.409 9.51 6.389 12.319z" fill="#f2926a"/><g><path d="m258.064 223.085-2.02 2.62-59.349-.1.02-13.23c.05-32.699 26.609-59.179 59.319-59.129h.12c17.14 19.88 17.94 49.07 1.91 69.839z" fill="#2b416b"/></g><path d="m315.164 211.72-.022 14.08-59.099-.095.116-72.458c32.319.112 58.597 26.143 59.005 58.473z" fill="#293651"/><g><path d="m318.372 217.557c.01-6.556-5.296-11.879-11.852-11.889-6.556-.011-11.879 5.295-11.89 11.851l-.997-.002c-6.486-.01-11.753 5.239-11.763 11.725-.01 6.486 5.239 11.753 11.725 11.763l.997.002c12.973.02 23.76-10.478 23.78-23.45z" fill="#f2926a"/><path d="m193.491 217.356c.01-6.556 5.334-11.862 11.89-11.851 6.556.01 11.862 5.333 11.852 11.889l.997.002c6.486.01 11.736 5.277 11.725 11.763-.01 6.486-5.277 11.736-11.763 11.725l-.997-.002c-12.973-.02-23.725-10.553-23.704-23.526z" fill="#f4a57b"/></g><path d="m257.594 271.524-1.63 2.71h-.12c-21.44-.53-38.669-18.79-38.629-40.399l.02-16.88c.01-5.17 2.58-10 6.85-12.9l31.909-21.39.12.08 8.05 22.419c7.9 21.991 5.48 46.35-6.57 66.36z" fill="#f7bda3"/><path d="m294.626 217.077-.027 16.88c-.035 21.569-17.253 39.742-38.634 40.277l.147-91.488 31.705 21.41c4.275 2.917 6.817 7.751 6.809 12.921z" fill="#f4a57b"/><g><path d="m299.842 213.396-.004 2.506c-.001.717-.293 1.364-.764 1.833s-1.12.757-1.836.756c-1.388-.002-2.556 1.042-2.707 2.422l-.978 8.867c-.688 6.233-5.959 10.947-12.228 10.937l-4.871-.008c-14.681-.023-16.619-6.835-17.581-15.825l-.265-3.607c-.103-1.405-1.271-2.493-2.679-2.495-.703-.001-1.35.268-1.832.716-.483.446-.802 1.069-.855 1.77l-.276 3.606c-.99 8.986-2.95 15.792-17.631 15.768l-4.871-.008c-6.269-.01-11.527-4.741-12.193-10.976l-.95-8.87c-.073-.69-.4-1.298-.885-1.731-.481-.435-1.12-.698-1.815-.7-1.434-.002-2.593-1.166-2.591-2.598l.004-2.506c.002-1.434 1.166-2.593 2.599-2.591l33.609.054c2.24.004 4.147 1.305 5.057 3.163.485.99 1.475 1.63 2.577 1.632h.115c1.102.002 2.094-.636 2.581-1.624.918-1.855 2.829-3.15 5.069-3.147l33.609.054c1.435.005 2.594 1.168 2.592 2.602z" fill="#374c81"/><path d="m299.842 213.396-.004 2.506c-.001.717-.293 1.364-.764 1.833s-1.12.757-1.836.756c-1.388-.002-2.556 1.042-2.707 2.422l-.978 8.867c-.688 6.233-5.959 10.947-12.228 10.937l-4.871-.008c-14.681-.023-16.619-6.835-17.581-15.825l-.265-3.607c-.103-1.405-1.271-2.493-2.679-2.495l.005-3.268h.057c1.102.002 2.094-.636 2.581-1.624.918-1.855 2.829-3.15 5.069-3.147l33.609.054c1.435.002 2.594 1.165 2.592 2.599z" fill="#2b416b"/><path d="m244.872 214.798c2.67.004 4.755 2.309 4.492 4.966l-.464 4.703c-.195 1.764-.463 3.793-.966 5.526-.431 1.484-.999 2.618-1.736 3.467-.807.93-1.912 1.626-3.379 2.128-1.894.649-4.41.975-7.479.97l-4.87-.008c-2.023-.003-3.967-.751-5.471-2.105s-2.451-3.208-2.667-5.22v-.002l-.001-.002-1.077-9.974c-.258-2.396 1.62-4.484 4.03-4.481z" fill="#2b416b"/><path d="m267.093 214.834c-2.67-.004-4.762 2.294-4.508 4.951l.449 4.704c.189 1.765.451 3.795.948 5.529.427 1.485.991 2.621 1.725 3.473.804.932 1.907 1.632 3.372 2.139 1.892.655 4.407.989 7.476.994l4.871.008c2.023.003 3.969-.738 5.477-2.087 1.509-1.349 2.462-3.2 2.683-5.211v-.002l.001-.002 1.108-9.97c.266-2.395-1.606-4.49-4.015-4.493z" fill="#293651"/></g></g><path d="m255.994 511.988h-.41c-27.529-.04-54.039-4.43-78.888-12.52l20.32-72.048 58.719-6.56 12.57 27.219c10.029 21.73 5.079 47.45-12.311 63.909z" fill="#fff"/><path d="m334.512 499.719c-24.739 7.97-51.129 12.27-78.518 12.27h-.41l.15-91.128 58.699 6.74z" fill="#d3ebf6"/><path d="m255.744 427.5-.02.01-58.709-.09.03-22.369 58.709.09c6.54 6.02 6.54 16.339-.01 22.359z" fill="#de1364"/><path d="m273.909 387.016h22.37v58.709h-22.37z" fill="#bb105d" transform="matrix(.001 -1 1 .001 -131.658 700.907)"/></g></g></svg>